HIERARCHY
ROOT hips_JNT
{
    OFFSET 0 0 0
    CHANNELS 6 Xposition Yposition Zposition Zrotation Xrotation Yrotation
    JOINT spine_JNT
    {
        OFFSET 0.000238189 9.31981 0.981874
        CHANNELS 3 Zrotation Xrotation Yrotation
        JOINT spine1_JNT
        {
            OFFSET -0.000662443 10.8731 -0.29512
            CHANNELS 3 Zrotation Xrotation Yrotation
            JOINT spine2_JNT
            {
                OFFSET 0 12.4264 -2.81409
                CHANNELS 3 Zrotation Xrotation Yrotation
                JOINT neck_JNT
                {
                    OFFSET 0 13.3255 -2.74093
                    CHANNELS 3 Zrotation Xrotation Yrotation
                    JOINT head_JNT
                    {
                        OFFSET 0 9.77181 1.36447
                        CHANNELS 3 Zrotation Xrotation Yrotation
                        End Site
                        {
                            OFFSET 0 0 0
                        }
                    }
                }
                JOINT l_shoulder_JNT
                {
                    OFFSET 4.39914 12.861 -2.76546
                    CHANNELS 3 Zrotation Xrotation Yrotation
                    JOINT l_arm_JNT
                    {
                        OFFSET 8.75735 -2.31198 0.0984192
                        CHANNELS 3 Zrotation Xrotation Yrotation
                        JOINT l_forearm_JNT
                        {
                            OFFSET 28.388 -5.96046e-05 0
                            CHANNELS 3 Zrotation Xrotation Yrotation
                            JOINT l_hand_JNT
                            {
                                OFFSET 21.0806 -4.76837e-05 -0.147462
                                CHANNELS 3 Zrotation Xrotation Yrotation
                                JOINT l_handThumb1_JNT
                                {
                                    OFFSET 4.23706 -0.388229 1.56239
                                    CHANNELS 3 Zrotation Xrotation Yrotation
                                    JOINT l_handThumb2_JNT
                                    {
                                        OFFSET 3.39355 -1.00842 1.0397
                                        CHANNELS 3 Zrotation Xrotation Yrotation
                                        JOINT l_handThumb3_JNT
                                        {
                                            OFFSET 2.16718 -0.67445 0.580491
                                            CHANNELS 3 Zrotation Xrotation Yrotation
                                            End Site
                                            {
                                                OFFSET 0 0 0
                                            }
                                        }
                                    }
                                }
                                JOINT l_handIndex1_JNT
                                {
                                    OFFSET 10.9609 -0.0328541 1.49257
                                    CHANNELS 3 Zrotation Xrotation Yrotation
                                    JOINT l_handIndex2_JNT
                                    {
                                        OFFSET 2.75512 -0.0654578 -0.0778204
                                        CHANNELS 3 Zrotation Xrotation Yrotation
                                        JOINT l_handIndex3_JNT
                                        {
                                            OFFSET 2.35416 -0.0430465 -0.064495
                                            CHANNELS 3 Zrotation Xrotation Yrotation
                                            End Site
                                            {
                                                OFFSET 0 0 0
                                            }
                                        }
                                    }
                                }
                                JOINT l_handMiddle1_JNT
                                {
                                    OFFSET 10.5711 0.0581741 0.129442
                                    CHANNELS 3 Zrotation Xrotation Yrotation
                                    JOINT l_handMiddle2_JNT
                                    {
                                        OFFSET 3.84908 -0.132298 -0.195131
                                        CHANNELS 3 Zrotation Xrotation Yrotation
                                        JOINT l_handMiddle3_JNT
                                        {
                                            OFFSET 2.33086 -0.0176787 6.29574e-05
                                            CHANNELS 3 Zrotation Xrotation Yrotation
                                            End Site
                                            {
                                                OFFSET 0 0 0
                                            }
                                        }
                                    }
                                }
                                JOINT l_handRing1_JNT
                                {
                                    OFFSET 9.91753 0.0666022 -1.2717
                                    CHANNELS 3 Zrotation Xrotation Yrotation
                                    JOINT l_handRing2_JNT
                                    {
                                        OFFSET 3.28143 -0.130188 -0.0192598
                                        CHANNELS 3 Zrotation Xrotation Yrotation
                                        JOINT l_handRing3_JNT
                                        {
                                            OFFSET 2.24263 -0.0529766 5.99772e-05
                                            CHANNELS 3 Zrotation Xrotation Yrotation
                                            End Site
                                            {
                                                OFFSET 0 0 0
                                            }
                                        }
                                    }
                                }
                                JOINT l_handPinky1_JNT
                                {
                                    OFFSET 8.94417 -0.0581622 -2.50741
                                    CHANNELS 3 Zrotation Xrotation Yrotation
                                    JOINT l_handPinky2_JNT
                                    {
                                        OFFSET 2.52914 0 -9.68575e-06
                                        CHANNELS 3 Zrotation Xrotation Yrotation
                                        JOINT l_handPinky3_JNT
                                        {
                                            OFFSET 1.94855 -0.0603914 -5.21541e-06
                                            CHANNELS 3 Zrotation Xrotation Yrotation
                                            End Site
                                            {
                                                OFFSET 0 0 0
                                            }
                                        }
                                    }
                                }
                            }
                        }
                    }
                }
                JOINT r_shoulder_JNT
                {
                    OFFSET -4.39914 12.8606 -2.76546
                    CHANNELS 3 Zrotation Xrotation Yrotation
                    JOINT r_arm_JNT
                    {
                        OFFSET -8.7573 -2.312 0.0984199
                        CHANNELS 3 Zrotation Xrotation Yrotation
                        JOINT r_forearm_JNT
                        {
                            OFFSET -28.3881 0 0
                            CHANNELS 3 Zrotation Xrotation Yrotation
                            JOINT r_hand_JNT
                            {
                                OFFSET -21.0806 0 -0.14746
                                CHANNELS 3 Zrotation Xrotation Yrotation
                                JOINT r_handThumb1_JNT
                                {
                                    OFFSET -4.237 -0.388002 1.56239
                                    CHANNELS 3 Zrotation Xrotation Yrotation
                                    JOINT r_handThumb2_JNT
                                    {
                                        OFFSET -3.3936 -1.008 1.0397
                                        CHANNELS 3 Zrotation Xrotation Yrotation
                                        JOINT r_handThumb3_JNT
                                        {
                                            OFFSET -2.1672 -0.674999 0.58049
                                            CHANNELS 3 Zrotation Xrotation Yrotation
                                            End Site
                                            {
                                                OFFSET 0 0 0
                                            }
                                        }
                                    }
                                }
                                JOINT r_handIndex1_JNT
                                {
                                    OFFSET -10.9609 -0.0329971 1.49257
                                    CHANNELS 3 Zrotation Xrotation Yrotation
                                    JOINT r_handIndex2_JNT
                                    {
                                        OFFSET -2.7551 -0.0650048 -0.07782
                                        CHANNELS 3 Zrotation Xrotation Yrotation
                                        JOINT r_handIndex3_JNT
                                        {
                                            OFFSET -2.3541 -0.0429988 -0.0644999
                                            CHANNELS 3 Zrotation Xrotation Yrotation
                                            End Site
                                            {
                                                OFFSET 0 0 0
                                            }
                                        }
                                    }
                                }
                                JOINT r_handMiddle1_JNT
                                {
                                    OFFSET -10.5711 0.0579953 0.12944
                                    CHANNELS 3 Zrotation Xrotation Yrotation
                                    JOINT r_handMiddle2_JNT
                                    {
                                        OFFSET -3.8491 -0.132 -0.19513
                                        CHANNELS 3 Zrotation Xrotation Yrotation
                                        JOINT r_handMiddle3_JNT
                                        {
                                            OFFSET -2.3308 -0.0169992 5.99772e-05
                                            CHANNELS 3 Zrotation Xrotation Yrotation
                                            End Site
                                            {
                                                OFFSET 0 0 0
                                            }
                                        }
                                    }
                                }
                                JOINT r_handRing1_JNT
                                {
                                    OFFSET -9.9175 0.0669956 -1.27171
                                    CHANNELS 3 Zrotation Xrotation Yrotation
                                    JOINT r_handRing2_JNT
                                    {
                                        OFFSET -3.2814 -0.129998 -0.0192601
                                        CHANNELS 3 Zrotation Xrotation Yrotation
                                        JOINT r_handRing3_JNT
                                        {
                                            OFFSET -2.2427 -0.0530005 5.99772e-05
                                            CHANNELS 3 Zrotation Xrotation Yrotation
                                            End Site
                                            {
                                                OFFSET 0 0 0
                                            }
                                        }
                                    }
                                }
                                JOINT r_handPinky1_JNT
                                {
                                    OFFSET -8.9441 -0.0579953 -2.50741
                                    CHANNELS 3 Zrotation Xrotation Yrotation
                                    JOINT r_handPinky2_JNT
                                    {
                                        OFFSET -2.5292 0 -9.68575e-06
                                        CHANNELS 3 Zrotation Xrotation Yrotation
                                        JOINT r_handPinky3_JNT
                                        {
                                            OFFSET -1.9485 -0.059998 -9.68575e-06
                                            CHANNELS 3 Zrotation Xrotation Yrotation
                                            End Site
                                            {
                                                OFFSET 0 0 0
                                            }
                                        }
                                    }
                                }
                            }
                        }
                    }
                }
            }
        }
    }
    JOINT l_upleg_JNT
    {
        OFFSET 8.40027 -5.30028 -0.989984
        CHANNELS 3 Zrotation Xrotation Yrotation
        JOINT l_leg_JNT
        {
            OFFSET 1.31259 -45.2396 -0.649571
            CHANNELS 3 Zrotation Xrotation Yrotation
            JOINT l_foot_JNT
            {
                OFFSET 0.349144 -42.5608 -1.59433
                CHANNELS 3 Zrotation Xrotation Yrotation
                JOINT l_toebase_JNT
                {
                    OFFSET 0.0702709 -8.1272 12.8887
                    CHANNELS 3 Zrotation Xrotation Yrotation
                    End Site
                    {
                        OFFSET 0 0 0
                    }
                }
            }
        }
    }
    JOINT r_upleg_JNT
    {
        OFFSET -8.39971 -5.3012 -0.990156
        CHANNELS 3 Zrotation Xrotation Yrotation
        JOINT r_leg_JNT
        {
            OFFSET -1.3127 -45.2404 -0.649775
            CHANNELS 3 Zrotation Xrotation Yrotation
            JOINT r_foot_JNT
            {
                OFFSET -0.349179 -42.5583 -1.59375
                CHANNELS 3 Zrotation Xrotation Yrotation
                JOINT r_toebase_JNT
                {
                    OFFSET -0.0702716 -8.12718 12.7926
                    CHANNELS 3 Zrotation Xrotation Yrotation
                    End Site
                    {
                        OFFSET 0 0 0
                    }
                }
            }
        }
    }
}
MOTION
Frames: 5
Frame Time: 0.033333
0.273278 57.3851 0.106733 19.6381 15.9156 -41.7772 7.01771 -0.00662824 0 -1.55228 2.11817 -3.17046 -0 0 0 -1.40824 0.0314406 1.01951 -19.0826 -14.7773 -2.35672 -0 0 0 -26.3928 -1.75727 7.48418 15.6075 -1.0824 -7.88546 -0 0 0 4.10661 20.7048 -22.2077 -0 0 0 -10.1306 -0.0893338 1.00871 -15.9651 4.7171 0.662045 -20.5565 6.01332 1.09144 -13.6761 4.0572 0.487787 -18.6624 3.66183 0.602632 -24.0154 4.65342 0.989911 -15.9905 3.15356 0.442347 -21.2848 -2.07895 -0.393664 -27.3738 -2.63257 -0.640411 -18.242 -1.79295 -0.288035 -23.3455 -4.53151 -0.936274 -30.0554 -5.72009 -1.53643 -19.9994 -3.91305 -0.689835 -0 0 0 -44.0823 -9.62992 23.5065 -17.7113 -1.35879 8.7047 6.83019e-06 9.60495e-06 0 -4.10661 20.7048 22.2077 -0 0 0 5.31616 0.0246457 0.52934 8.36378 2.49865 -0.181308 10.7579 3.20508 -0.303902 7.16775 2.14372 -0.137056 9.78324 1.9464 -0.163129 12.5816 2.49457 -0.274112 8.38478 1.6705 -0.125115 11.1655 -1.10936 0.111906 14.3568 -1.42041 0.176939 9.5701 -0.952479 0.0791294 12.2317 -2.42635 0.256409 15.7325 -3.10408 0.429783 10.4826 -2.08393 0.189746 41.3321 8.99087 15.8517 -0.535915 10.7062 -1.4133 -0.623179 8.36412 1.64421 -4.63542 -28.6186 -17.9854 -125.041 -59.4012 -101.939 173.042 73.283 -120.248 9.13427 -17.6148 -25.2603 -0.0597389 -20.3826 -0.333378 
0.655946 57.5647 0.245932 19.519 15.8182 -41.7217 7.01579 -0.00607036 0 -1.61094 2.10899 -2.85806 -1.27222e-14 -4.26887e-07 0 -1.04821 0.449118 0.758984 -19.1291 -14.7132 -2.3504 3.41509e-06 -8.11085e-06 0.0395647 -26.3938 -1.67973 7.15417 15.7904 -1.10932 -7.98663 8.53774e-07 7.95139e-16 0 4.10661 20.7048 -22.2077 -0 0 0 -10.1388 -0.0894781 1.00871 -15.9781 4.72082 0.663226 -20.5733 6.01797 1.09359 -13.6872 4.06042 0.487787 -18.6775 3.66469 0.602632 -24.035 4.65696 0.991491 -16.0035 3.15605 0.444113 -21.302 -2.08055 -0.391671 -27.396 -2.63454 -0.642851 -18.2568 -1.79435 -0.29074 -23.3645 -4.53497 -0.937944 -30.0799 -5.72429 -1.53846 -20.0156 -3.91609 -0.690968 3.41509e-06 -8.11085e-06 0.0395647 -43.8835 -9.66378 23.702 -17.7716 -1.34434 8.5828 -2.77476e-06 7.47052e-06 0 -4.10661 20.7048 22.2077 -0 0 0 5.32422 0.0247205 0.52934 8.37648 2.50241 -0.185575 10.7742 3.20989 -0.301316 7.17863 2.14695 -0.131221 9.79809 1.94933 -0.167859 12.6007 2.49829 -0.274112 8.39751 1.67302 0.118694 11.1824 -1.11102 0.111906 14.3786 -1.42252 0.185575 9.58463 -0.953911 0.0791294 12.2503 -2.42997 0.259443 15.7565 -3.10867 0.429783 10.4986 -2.08706 0.189746 41.5392 7.64914 15.89 -0.541326 13.6001 -1.37968 -0.359477 7.01203 1.59148 -4.62319 -28.5758 -17.9662 -123.846 -55.8352 -105.213 173.792 73.0605 -131.1 9.60835 -12.5199 -20.17 -0.00300607 -20.2403 0.0395647 
1.07079 57.7907 0.383967 19.4058 15.7684 -41.6937 7.05843 -0.00561237 0 -1.66146 2.09871 -2.53188 1.70755e-06 -1.28066e-06 0.0395647 -0.758128 0.700686 0.551073 -19.0898 -14.4739 -2.30568 -1.70755e-06 -7.25708e-06 0 -26.4178 -1.6059 6.83437 15.9894 -1.13458 -8.06549 -0 1.92099e-06 0 4.10661 20.7048 -22.2077 -0 0 0 -10.1442 -0.0895732 1.00871 -15.9866 4.72327 0.664405 -20.5843 6.02104 1.09359 -13.6946 4.06254 0.487787 -18.6875 3.66657 0.606516 -24.0478 4.6593 0.993069 -16.0121 3.15769 0.442347 -21.3134 -2.08161 -0.389667 -27.4106 -2.63583 -0.642851 -18.2665 -1.79527 -0.288035 -23.377 -4.53725 -0.939612 -30.096 -5.72705 -1.54202 -20.0263 -3.91809 -0.6921 -1.70755e-06 -7.25708e-06 0 -43.7496 -9.70236 23.8726 -17.8404 -1.33085 8.46405 -0 0 0 -4.10661 20.7048 22.2077 -0 0 0 5.32978 0.0247721 0.532289 8.38525 2.50501 -0.189746 10.7855 3.2132 -0.303902 7.18614 2.14919 -0.137056 9.80834 1.95135 -0.163129 12.6139 2.50086 -0.276953 8.40628 1.67475 -0.125115 11.1941 -1.11216 0.104678 14.3936 -1.42398 0.176939 9.59464 -0.954898 0.068528 12.2631 -2.43247 0.256409 15.773 -3.11183 0.4316 10.5095 -2.08921 0.185575 41.6773 6.4838 15.9012 -0.547167 16.039 -1.34404 -0.0737016 5.90427 1.57566 -4.63512 -28.6051 -17.9933 -122.524 -53.0917 -107.53 174.385 73.2402 -139.573 9.19304 -8.82427 -16.373 0.03387 -20.0028 0.197823 
1.40329 58.0187 0.473244 19.3176 15.7748 -41.7064 7.14948 -0.00480471 0.0395647 -1.70382 2.08752 -2.20503 1.70755e-06 1.70755e-06 0 -0.568874 0.731629 0.40926 -18.9792 -14.0564 -2.2206 -8.53774e-07 6.83019e-06 0 -26.4505 -1.53714 6.53397 16.1619 -1.15351 -8.11091 1.70755e-06 2.13443e-06 0 4.10661 20.7048 -22.2077 -0 0 0 -10.1455 -0.0895976 1.00948 -15.9888 4.72389 0.663226 -20.5871 6.02182 1.09431 -13.6964 4.06308 0.489388 -18.6901 3.66705 0.602632 -24.0511 4.65989 0.993857 -16.0142 3.15811 0.442347 -21.3163 -2.08188 -0.391671 -27.4143 -2.63616 -0.644067 -18.269 -1.79551 -0.285305 -23.3802 -4.53784 -0.938778 -30.1001 -5.72776 -1.541 -20.0291 -3.9186 -0.69323 -8.53774e-07 6.83019e-06 0 -43.7145 -9.74178 23.9879 -17.903 -1.31976 8.36377 3.62854e-06 0 0 -4.10661 20.7048 22.2077 -0 0 0 5.33164 0.0247893 0.530816 8.38817 2.50587 -0.181308 10.7893 3.21431 -0.303902 7.18864 2.14993 -0.137056 9.81175 1.95202 -0.167859 12.6183 2.50171 -0.276953 8.40921 1.67533 0.118694 11.198 -1.11255 0.118694 14.3986 -1.42446 0.181308 9.59798 -0.955227 0.0791294 12.2673 -2.4333 0.259443 15.7784 -3.11289 0.4316 10.5132 -2.08993 0.189746 41.7402 5.713 15.8616 -0.551576 17.5765 -1.32528 0.157932 5.25506 1.58507 -4.67471 -28.7173 -18.0718 -121.323 -50.9681 -109.394 174.897 73.5359 -146.33 8.37606 -6.15763 -13.3967 0.056974 -19.768 0.333378 
1.58518 58.2136 0.492087 19.2721 15.8289 -41.7699 7.27432 -0.00454188 0 -1.74036 2.07669 -1.89252 -7.95139e-16 -4.26887e-07 0.0395647 -0.480504 0.535216 0.347179 -18.8397 -13.4969 -2.10961 -7.95139e-16 -4.26887e-07 0.0395647 -26.4681 -1.47284 6.25675 16.2617 -1.16188 -8.11882 -8.53774e-07 0 0.0395647 4.10661 20.7048 -22.2077 -0 0 0 -10.143 -0.0895531 1.00871 -15.9848 4.72275 0.663226 -20.582 6.02039 1.09431 -13.693 4.06209 0.487787 -18.6854 3.66618 0.603929 -24.0451 4.6588 0.993069 -16.0103 3.15734 0.445872 -21.311 -2.08138 -0.389667 -27.4075 -2.63556 -0.644067 -18.2644 -1.79508 -0.285305 -23.3744 -4.53677 -0.937944 -30.0926 -5.72647 -1.5405 -20.0241 -3.91767 -0.6921 -7.95139e-16 -4.26887e-07 0.0395647 -43.7856 -9.77753 24.0317 -17.9471 -1.3127 8.2989 -2.34788e-06 1.4941e-06 0.0395647 -4.10661 20.7048 22.2077 -0 0 0 5.32954 0.0247698 0.530816 8.38486 2.50489 -0.181308 10.785 3.21306 -0.301316 7.18581 2.14909 -0.137056 9.80789 1.95126 -0.163129 12.6133 2.50075 -0.274112 8.4059 1.67468 -0.125115 11.1936 -1.11211 0.104678 14.393 -1.42391 0.185575 9.5942 -0.954854 0.068528 12.2625 -2.43236 0.259443 15.7722 -3.11169 0.429783 10.509 -2.08912 0.189746 41.7291 5.41653 15.7464 -0.553326 18.0825 -1.33117 0.287938 5.10214 1.60616 -4.74201 -28.9147 -18.1997 -120.338 -49.3287 -111.056 175.369 73.7641 -151.823 7.34988 -4.29062 -11.0322 0.0718732 -19.5715 0.41684 
